<svg width="131" height="122" viewBox="0 0 131 122" fill="none" xmlns="http://www.w3.org/2000/svg">
<path d="M125.497 42.1529H82.6677L69.653 3.31254C69.0125 1.42002 67.2364 0.226273 65.2274 0.226273C63.2185 0.226273 61.4424 1.42002 60.8019 3.31254L47.7872 42.1529H4.66681C2.10463 42.1529 0.00830078 44.2492 0.00830078 46.8114C0.00830078 47.0734 0.0374162 47.3646 0.0956476 47.5975C0.153879 48.6165 0.61973 49.7521 2.0464 50.8876L37.2473 75.6941L23.7376 114.971C23.0679 116.864 23.7376 118.989 25.339 120.212C26.1833 120.823 26.9694 121.348 27.9594 121.348C28.9202 121.348 30.0557 120.853 30.8709 120.299L65.2274 95.8131L99.584 120.299C100.399 120.882 101.535 121.348 102.496 121.348C103.485 121.348 104.272 120.853 105.087 120.212C106.717 118.989 107.358 116.893 106.688 114.971L93.1785 75.6941L128.088 50.6546L128.933 49.9268C129.69 49.1115 130.447 48.0051 130.447 46.8114C130.447 44.2492 128.059 42.1529 125.497 42.1529ZM88.4618 69.0849C85.5502 71.1812 84.3273 74.9662 85.492 78.3437L94.2558 103.878C94.6343 104.955 93.4114 105.858 92.4797 105.217L69.9442 89.1456C68.5175 88.1265 66.8579 87.6316 65.1983 87.6316C63.5387 87.6316 61.8791 88.1265 60.4816 89.1456L37.946 105.188C37.0143 105.858 35.7915 104.926 36.17 103.849L44.9338 78.3146C46.0984 74.8789 44.8756 71.0939 41.9349 68.9975L18.3512 52.3725C17.4195 51.7319 17.8853 50.247 19.0208 50.247H47.758C51.2519 50.247 54.3673 48.0051 55.4737 44.6859L64.0919 19.0059C64.4413 17.9577 65.9553 17.9577 66.3047 19.0059L74.923 44.6859C76.0294 48.0051 79.1447 50.247 82.6386 50.247H110.968C112.104 50.247 112.57 51.7028 111.638 52.3434L88.4618 69.0849Z" fill="black"/>
</svg>
