<svg width="150" height="150" viewBox="0 0 150 150" fill="none" xmlns="http://www.w3.org/2000/svg">
<path fill-rule="evenodd" clip-rule="evenodd" d="M39.6697 20.3406C39.6697 18.0893 41.4946 16.2644 43.7459 16.2644C45.9971 16.2644 47.822 18.0893 47.822 20.3406V24.9991H101.395V20.3406C101.395 18.0893 103.22 16.2644 105.471 16.2644C107.722 16.2644 109.547 18.0893 109.547 20.3406V24.9991H122.358C126.861 24.9991 130.511 28.649 130.511 33.1515V52.659V60.8114L130.511 122.537C130.511 127.039 126.861 130.689 122.358 130.689H26.8588C22.3563 130.689 18.7064 127.039 18.7064 122.537V60.8114V52.659V33.1515C18.7064 28.649 22.3563 24.9991 26.8588 24.9991H39.6697V20.3406ZM101.395 33.1515V38.9746C101.395 41.2258 103.22 43.0508 105.471 43.0508C107.722 43.0508 109.547 41.2258 109.547 38.9746V33.1515H122.358V52.659H26.8588V33.1515H39.6697V38.9746C39.6697 41.2258 41.4946 43.0508 43.7459 43.0508C45.9971 43.0508 47.822 41.2258 47.822 38.9746V33.1515H101.395ZM122.358 122.537H26.8588V60.8114H122.358V122.537ZM68.4143 103.387L97.789 71.3678C98.949 70.1035 100.824 70.1035 101.981 71.3678C103.141 72.6322 103.141 74.6797 101.981 75.9404L70.52 110.233C69.9434 110.865 69.1821 111.182 68.4242 111.182C67.6696 111.182 66.9149 110.869 66.3382 110.244L50.4481 93.0922C49.2848 91.835 49.2749 89.7876 50.425 88.516C51.5817 87.2552 53.4534 87.2409 54.62 88.4981L68.4143 103.387Z" fill="black"/>
</svg>
