<svg width="150" height="150" viewBox="0 0 150 150" fill="none" xmlns="http://www.w3.org/2000/svg">
<path fill-rule="evenodd" clip-rule="evenodd" d="M48.5615 58.196L21.1446 10.7324H129.455L102.223 57.8759C112.075 65.7171 118.391 77.8124 118.391 91.3829C118.391 115.021 99.2288 134.183 75.5909 134.183C51.9531 134.183 32.7909 115.021 32.7909 91.3829C32.7909 77.9958 38.937 66.0442 48.5615 58.196ZM56.8142 52.9107L32.4997 10.7324H56.9569L46.1841 10.7324L68.4097 49.1826C64.3179 49.8739 60.4236 51.1458 56.8142 52.9107ZM93.6427 10.7324L75.2998 42.1773L56.9569 10.7324H93.6427ZM93.6427 10.7324H118.1L93.9118 52.6911C90.274 50.9655 86.354 49.7378 82.2399 49.0962L104.415 10.7324L93.6427 10.7324ZM109.074 91.3829C109.074 72.8907 94.0831 57.8998 75.5909 57.8998C57.0988 57.8998 42.1079 72.8907 42.1079 91.3829C42.1079 109.875 57.0988 124.866 75.5909 124.866C94.0831 124.866 109.074 109.875 109.074 91.3829Z" fill="#131D28"/>
</svg>
