<svg width="373" height="65" viewBox="0 0 373 65" fill="none" xmlns="http://www.w3.org/2000/svg">
<path fill-rule="evenodd" clip-rule="evenodd" d="M37.0228 12.8649C33.9849 7.99068 27.6125 6.36581 22.1294 6.29201C15.757 6.29201 7.53189 8.1383 7.53189 15.7449C7.53189 21.8012 14.2009 23.426 22.2775 24.8291C32.5028 26.602 42.8765 28.8911 42.8765 39.8958C42.8024 51.5647 31.5398 54.7403 22.1294 54.7403C13.3856 54.7403 4.49397 51.5647 0.493042 43.2931L5.0127 40.8556C8.56933 47.5024 15.8311 49.7919 22.1294 49.7919C28.5018 49.7919 37.6156 48.0936 37.6156 39.822C37.6896 32.8058 29.8355 31.033 21.7588 29.6299C11.9779 27.9312 2.34541 25.789 2.34541 15.7449C2.19731 4.88855 13.3119 1.41739 22.055 1.41739C29.1683 1.41739 36.8007 3.33749 41.3947 10.4278L37.0228 12.8649Z" fill="#131D28"/>
<path fill-rule="evenodd" clip-rule="evenodd" d="M109.635 54.0721H104.374L96.5942 31.842L90.2958 12.2705L84.0715 31.7678L76.2914 54.0721H70.9565L52.5801 2.2264H58.4338L73.5497 46.9821L88.6656 2.2264H91.9261L107.042 46.9821L122.232 2.2264H128.012L109.635 54.0721Z" fill="#131D28"/>
<path fill-rule="evenodd" clip-rule="evenodd" d="M212.059 7.09668V29.9917H229.842C238.141 29.9917 242.143 25.1171 242.143 18.618C242.143 12.1189 238.141 7.09668 230.139 7.09668H212.059ZM249.402 53.9224H242.659L225.468 34.8679H212.057V53.9224H206.87V2.22437H230.137C241.696 2.22437 247.254 9.90513 247.327 18.6199C247.401 26.6701 242.659 33.9815 231.693 34.4993L249.402 53.9224Z" fill="#131D28"/>
<path fill-rule="evenodd" clip-rule="evenodd" d="M297.476 2.59581L272.209 27.0416L299.699 53.5554V53.9244H293.253L267.245 28.8879V53.9244H262.057V2.2264H267.245V25.4905L291.326 2.2264H297.476V2.59581Z" fill="#131D28"/>
<mask id="mask0_1_292" style="mask-type:alpha" maskUnits="userSpaceOnUse" x="0" y="0" width="373" height="65">
<path fill-rule="evenodd" clip-rule="evenodd" d="M0.493042 64.2874H372.245V0.0365753H0.493042V64.2874Z" fill="white"/>
</mask>
<g mask="url(#mask0_1_292)">
<path fill-rule="evenodd" clip-rule="evenodd" d="M311.304 53.9244H316.491V2.2264H311.304V53.9244Z" fill="#131D28"/>
<path fill-rule="evenodd" clip-rule="evenodd" d="M348.758 7.10064H330.456V2.2264H372.246V7.10064H353.944V53.9244H348.758V7.10064Z" fill="#131D28"/>
<path fill-rule="evenodd" clip-rule="evenodd" d="M163.943 52.94C150.398 52.94 139.418 41.9959 139.418 28.4958C139.418 14.9957 150.398 4.0519 163.943 4.0519C177.487 4.0519 188.467 14.9957 188.467 28.4958C188.467 41.9959 177.487 52.94 163.943 52.94ZM185.576 9.65303L186.92 8.31278L188.275 9.66325L190.834 7.11296C191.415 6.53424 191.415 5.59633 190.834 5.01762L188.01 2.20238C187.43 1.62367 186.488 1.62367 185.908 2.20238L183.349 4.75305L184.704 6.10389L183.389 7.41462C178.858 3.2633 172.988 0.540797 166.497 -0.0292139V-2.14424H169.167V-5.6559C169.167 -6.45906 168.514 -7.11007 167.708 -7.11007H160.221C159.415 -7.11007 158.762 -6.45906 158.762 -5.6559V-2.14424H161.391V-0.0292139C146.716 1.25918 135.206 13.5349 135.206 28.4963C135.206 44.3162 148.072 57.1407 163.944 57.1407C179.816 57.1407 192.683 44.3162 192.683 28.4963C192.683 21.2777 189.997 14.6889 185.576 9.65303Z" fill="#131D28"/>
</g>
</svg>
