<svg width="150" height="150" viewBox="0 0 150 150" fill="none" xmlns="http://www.w3.org/2000/svg">
<path fill-rule="evenodd" clip-rule="evenodd" d="M67.5484 11.6059C65.9404 11.6059 64.6368 12.9094 64.6368 14.5174V21.214H69.5865V25.7998C41.3531 28.3033 19.2164 52.0171 19.2164 80.9012C19.2164 111.453 43.9839 136.221 74.5362 136.221C105.088 136.221 129.856 111.453 129.856 80.9012C129.856 67.112 124.811 54.5012 116.466 44.814L119.416 41.8635L121.953 44.4001L126.688 39.6649C127.825 38.5279 127.825 36.6844 126.688 35.5473L120.756 29.6152C119.619 28.4782 117.775 28.4782 116.638 29.6152L111.903 34.3504L114.44 36.887L111.544 39.7826C102.891 31.9894 91.765 26.8886 79.4858 25.7998V21.214H84.4355V14.5174C84.4355 12.9094 83.132 11.6059 81.5239 11.6059H67.5484ZM74.5362 126.322C99.6212 126.322 119.957 105.986 119.957 80.9012C119.957 55.8162 99.6212 35.4807 74.5362 35.4807C49.4511 35.4807 29.1157 55.8162 29.1157 80.9012C29.1157 105.986 49.4511 126.322 74.5362 126.322Z" fill="black"/>
</svg>
